<svg xmlns="http://www.w3.org/2000/svg" xmlns:xlink="http://www.w3.org/1999/xlink" width="500" zoomAndPan="magnify" viewBox="0 0 375 374.999991" height="500" preserveAspectRatio="xMidYMid meet" version="1.0"><defs><g/><clipPath id="18c02ff832"><path d="M 208.722656 142.515625 L 294.972656 142.515625 L 294.972656 240.765625 L 208.722656 240.765625 Z M 208.722656 142.515625 " clip-rule="nonzero"/></clipPath></defs><g clip-path="url(#18c02ff832)"><path fill="#000000" d="M 290.167969 191.125 L 275.355469 191.125 C 272.628906 191.125 270.417969 193.34375 270.417969 196.074219 L 270.417969 210.925781 C 270.417969 211.015625 270.4375 211.097656 270.441406 211.183594 L 257.5625 224.09375 L 250.410156 224.09375 L 241.394531 215.054688 C 241.539062 214.515625 241.636719 213.957031 241.636719 213.371094 L 241.636719 193.570312 C 241.636719 192.984375 241.535156 192.425781 241.394531 191.886719 L 246.320312 186.949219 C 246.40625 186.953125 246.488281 186.976562 246.574219 186.976562 L 261.390625 186.976562 C 264.117188 186.976562 266.328125 184.757812 266.328125 182.023438 L 266.328125 167.175781 C 266.328125 164.441406 264.117188 162.226562 261.390625 162.226562 L 246.574219 162.226562 C 246.488281 162.226562 246.40625 162.246094 246.320312 162.253906 L 238.558594 154.472656 L 238.558594 145.9375 C 238.558594 144.117188 237.085938 142.636719 235.269531 142.636719 L 225.390625 142.636719 C 223.574219 142.636719 222.101562 144.117188 222.101562 145.9375 L 222.101562 155.835938 C 222.101562 157.660156 223.574219 159.136719 225.390625 159.136719 L 233.90625 159.136719 L 241.664062 166.914062 C 241.660156 167 241.636719 167.085938 241.636719 167.171875 L 241.636719 182.023438 C 241.636719 182.109375 241.65625 182.191406 241.664062 182.277344 L 236.738281 187.214844 C 236.199219 187.070312 235.640625 186.972656 235.054688 186.972656 L 215.304688 186.972656 C 211.667969 186.972656 208.722656 189.925781 208.722656 193.570312 L 208.722656 213.371094 C 208.722656 217.015625 211.667969 219.96875 215.304688 219.96875 L 235.058594 219.96875 C 235.644531 219.96875 236.199219 219.867188 236.742188 219.726562 L 245.757812 228.761719 L 245.757812 237.292969 C 245.757812 239.117188 247.230469 240.59375 249.046875 240.59375 L 258.921875 240.59375 C 260.742188 240.59375 262.214844 239.117188 262.214844 237.292969 L 262.214844 228.761719 L 275.101562 215.84375 C 275.1875 215.847656 275.269531 215.871094 275.355469 215.871094 L 290.171875 215.871094 C 292.898438 215.871094 295.109375 213.652344 295.109375 210.921875 L 295.109375 196.074219 C 295.109375 193.339844 292.898438 191.121094 290.171875 191.121094 Z M 290.167969 191.125 " fill-opacity="1" fill-rule="nonzero"/></g><g fill="#000000" fill-opacity="1"><g transform="translate(67.064626, 179.870907)"><g><path d="M 14.25 -14.15625 C 14.0625 -14.15625 13.898438 -14.222656 13.765625 -14.359375 C 13.628906 -14.503906 13.5625 -14.664062 13.5625 -14.84375 L 13.5625 -16.46875 C 13.5625 -16.8125 13.453125 -17.070312 13.234375 -17.25 L 11.75 -18.640625 C 11.5 -18.890625 11.253906 -19.015625 11.015625 -19.015625 L 8.75 -19.015625 C 8.53125 -19.015625 8.296875 -18.890625 8.046875 -18.640625 L 6.5625 -17.25 C 6.351562 -17.039062 6.25 -16.78125 6.25 -16.46875 L 6.25 -6.65625 C 6.25 -6.351562 6.351562 -6.09375 6.5625 -5.875 L 8.046875 -4.484375 C 8.296875 -4.242188 8.53125 -4.125 8.75 -4.125 L 11.015625 -4.125 C 11.253906 -4.125 11.5 -4.242188 11.75 -4.484375 L 13.234375 -5.875 C 13.453125 -6.0625 13.5625 -6.320312 13.5625 -6.65625 L 13.5625 -8.28125 C 13.5625 -8.46875 13.628906 -8.628906 13.765625 -8.765625 C 13.898438 -8.898438 14.0625 -8.96875 14.25 -8.96875 L 17.34375 -8.96875 C 17.53125 -8.96875 17.691406 -8.898438 17.828125 -8.765625 C 17.972656 -8.628906 18.046875 -8.46875 18.046875 -8.28125 L 18.046875 -5.453125 C 18.046875 -4.992188 17.875 -4.59375 17.53125 -4.25 L 13.46875 -0.09375 C 13.09375 0.28125 12.628906 0.46875 12.078125 0.46875 L 7.453125 0.46875 C 6.921875 0.46875 6.472656 0.28125 6.109375 -0.09375 L 1.9375 -4.25 C 1.820312 -4.40625 1.703125 -4.59375 1.578125 -4.8125 C 1.453125 -5.03125 1.390625 -5.242188 1.390625 -5.453125 L 1.390625 -17.671875 C 1.390625 -17.921875 1.453125 -18.148438 1.578125 -18.359375 C 1.703125 -18.578125 1.820312 -18.75 1.9375 -18.875 L 6.109375 -23.046875 C 6.472656 -23.410156 6.921875 -23.59375 7.453125 -23.59375 L 12.078125 -23.59375 C 12.628906 -23.59375 13.09375 -23.410156 13.46875 -23.046875 L 17.53125 -18.875 C 17.875 -18.539062 18.046875 -18.140625 18.046875 -17.671875 L 18.046875 -14.84375 C 18.046875 -14.664062 17.972656 -14.503906 17.828125 -14.359375 C 17.691406 -14.222656 17.53125 -14.15625 17.34375 -14.15625 Z M 14.25 -14.15625 "/></g></g></g><g fill="#000000" fill-opacity="1"><g transform="translate(86.491291, 179.870907)"><g><path d="M 2.078125 0 C 1.890625 0 1.726562 -0.0664062 1.59375 -0.203125 C 1.457031 -0.347656 1.390625 -0.507812 1.390625 -0.6875 L 1.390625 -22.4375 C 1.390625 -22.625 1.457031 -22.785156 1.59375 -22.921875 C 1.726562 -23.054688 1.890625 -23.125 2.078125 -23.125 L 5.546875 -23.125 C 5.734375 -23.125 5.894531 -23.054688 6.03125 -22.921875 C 6.175781 -22.785156 6.25 -22.625 6.25 -22.4375 L 6.25 -0.6875 C 6.25 -0.507812 6.175781 -0.347656 6.03125 -0.203125 C 5.894531 -0.0664062 5.734375 0 5.546875 0 Z M 2.078125 0 "/></g></g></g><g fill="#000000" fill-opacity="1"><g transform="translate(94.123195, 179.870907)"><g><path d="M 18.734375 -23.125 C 18.921875 -23.125 19.082031 -23.054688 19.21875 -22.921875 C 19.363281 -22.785156 19.4375 -22.625 19.4375 -22.4375 L 19.4375 -8.234375 C 19.4375 -7.835938 19.265625 -7.4375 18.921875 -7.03125 L 13.46875 -0.5625 C 13.1875 -0.1875 12.722656 0 12.078125 0 L 8.75 0 C 8.09375 0 7.628906 -0.1875 7.359375 -0.5625 L 1.890625 -7.03125 C 1.554688 -7.4375 1.390625 -7.835938 1.390625 -8.234375 L 1.390625 -22.4375 C 1.390625 -22.625 1.457031 -22.785156 1.59375 -22.921875 C 1.726562 -23.054688 1.890625 -23.125 2.078125 -23.125 L 5.1875 -23.125 C 5.363281 -23.125 5.519531 -23.054688 5.65625 -22.921875 C 5.800781 -22.785156 5.875 -22.625 5.875 -22.4375 L 5.875 -9.671875 C 5.875 -9.390625 5.984375 -9.128906 6.203125 -8.890625 L 9.296875 -4.953125 L 9.578125 -4.71875 C 9.671875 -4.625 9.828125 -4.578125 10.046875 -4.578125 L 10.78125 -4.578125 C 10.96875 -4.578125 11.125 -4.625 11.25 -4.71875 L 11.515625 -4.953125 L 14.625 -8.890625 C 14.832031 -9.128906 14.9375 -9.390625 14.9375 -9.671875 L 14.9375 -22.4375 C 14.9375 -22.625 15.003906 -22.785156 15.140625 -22.921875 C 15.285156 -23.054688 15.453125 -23.125 15.640625 -23.125 Z M 18.734375 -23.125 "/></g></g></g><g fill="#000000" fill-opacity="1"><g transform="translate(114.937479, 179.870907)"><g><path d="M 2.078125 0 C 1.890625 0 1.726562 -0.0664062 1.59375 -0.203125 C 1.457031 -0.347656 1.390625 -0.507812 1.390625 -0.6875 L 1.390625 -22.4375 C 1.390625 -22.625 1.457031 -22.785156 1.59375 -22.921875 C 1.726562 -23.054688 1.890625 -23.125 2.078125 -23.125 L 5.546875 -23.125 C 5.734375 -23.125 5.894531 -23.054688 6.03125 -22.921875 C 6.175781 -22.785156 6.25 -22.625 6.25 -22.4375 L 6.25 -0.6875 C 6.25 -0.507812 6.175781 -0.347656 6.03125 -0.203125 C 5.894531 -0.0664062 5.734375 0 5.546875 0 Z M 2.078125 0 "/></g></g></g><g fill="#000000" fill-opacity="1"><g transform="translate(122.569383, 179.870907)"><g><path d="M 14.25 -14.15625 C 14.0625 -14.15625 13.898438 -14.222656 13.765625 -14.359375 C 13.628906 -14.503906 13.5625 -14.664062 13.5625 -14.84375 L 13.5625 -16.46875 C 13.5625 -16.8125 13.453125 -17.070312 13.234375 -17.25 L 11.75 -18.640625 C 11.5 -18.890625 11.253906 -19.015625 11.015625 -19.015625 L 8.75 -19.015625 C 8.53125 -19.015625 8.296875 -18.890625 8.046875 -18.640625 L 6.5625 -17.25 C 6.351562 -17.039062 6.25 -16.78125 6.25 -16.46875 L 6.25 -6.65625 C 6.25 -6.351562 6.351562 -6.09375 6.5625 -5.875 L 8.046875 -4.484375 C 8.296875 -4.242188 8.53125 -4.125 8.75 -4.125 L 11.015625 -4.125 C 11.253906 -4.125 11.5 -4.242188 11.75 -4.484375 L 13.234375 -5.875 C 13.453125 -6.0625 13.5625 -6.320312 13.5625 -6.65625 L 13.5625 -8.28125 C 13.5625 -8.46875 13.628906 -8.628906 13.765625 -8.765625 C 13.898438 -8.898438 14.0625 -8.96875 14.25 -8.96875 L 17.34375 -8.96875 C 17.53125 -8.96875 17.691406 -8.898438 17.828125 -8.765625 C 17.972656 -8.628906 18.046875 -8.46875 18.046875 -8.28125 L 18.046875 -5.453125 C 18.046875 -4.992188 17.875 -4.59375 17.53125 -4.25 L 13.46875 -0.09375 C 13.09375 0.28125 12.628906 0.46875 12.078125 0.46875 L 7.453125 0.46875 C 6.921875 0.46875 6.472656 0.28125 6.109375 -0.09375 L 1.9375 -4.25 C 1.820312 -4.40625 1.703125 -4.59375 1.578125 -4.8125 C 1.453125 -5.03125 1.390625 -5.242188 1.390625 -5.453125 L 1.390625 -17.671875 C 1.390625 -17.921875 1.453125 -18.148438 1.578125 -18.359375 C 1.703125 -18.578125 1.820312 -18.75 1.9375 -18.875 L 6.109375 -23.046875 C 6.472656 -23.410156 6.921875 -23.59375 7.453125 -23.59375 L 12.078125 -23.59375 C 12.628906 -23.59375 13.09375 -23.410156 13.46875 -23.046875 L 17.53125 -18.875 C 17.875 -18.539062 18.046875 -18.140625 18.046875 -17.671875 L 18.046875 -14.84375 C 18.046875 -14.664062 17.972656 -14.503906 17.828125 -14.359375 C 17.691406 -14.222656 17.53125 -14.15625 17.34375 -14.15625 Z M 14.25 -14.15625 "/></g></g></g><g fill="#000000" fill-opacity="1"><g transform="translate(67.064626, 212.120904)"><g><path d="M 14.25 -14.15625 C 14.0625 -14.15625 13.898438 -14.222656 13.765625 -14.359375 C 13.628906 -14.503906 13.5625 -14.664062 13.5625 -14.84375 L 13.5625 -16.46875 C 13.5625 -16.8125 13.453125 -17.070312 13.234375 -17.25 L 11.75 -18.640625 C 11.5 -18.890625 11.253906 -19.015625 11.015625 -19.015625 L 8.75 -19.015625 C 8.53125 -19.015625 8.296875 -18.890625 8.046875 -18.640625 L 6.5625 -17.25 C 6.351562 -17.039062 6.25 -16.78125 6.25 -16.46875 L 6.25 -6.65625 C 6.25 -6.351562 6.351562 -6.09375 6.5625 -5.875 L 8.046875 -4.484375 C 8.296875 -4.242188 8.53125 -4.125 8.75 -4.125 L 11.015625 -4.125 C 11.253906 -4.125 11.5 -4.242188 11.75 -4.484375 L 13.234375 -5.875 C 13.453125 -6.0625 13.5625 -6.320312 13.5625 -6.65625 L 13.5625 -8.28125 C 13.5625 -8.46875 13.628906 -8.628906 13.765625 -8.765625 C 13.898438 -8.898438 14.0625 -8.96875 14.25 -8.96875 L 17.34375 -8.96875 C 17.53125 -8.96875 17.691406 -8.898438 17.828125 -8.765625 C 17.972656 -8.628906 18.046875 -8.46875 18.046875 -8.28125 L 18.046875 -5.453125 C 18.046875 -4.992188 17.875 -4.59375 17.53125 -4.25 L 13.46875 -0.09375 C 13.09375 0.28125 12.628906 0.46875 12.078125 0.46875 L 7.453125 0.46875 C 6.921875 0.46875 6.472656 0.28125 6.109375 -0.09375 L 1.9375 -4.25 C 1.820312 -4.40625 1.703125 -4.59375 1.578125 -4.8125 C 1.453125 -5.03125 1.390625 -5.242188 1.390625 -5.453125 L 1.390625 -17.671875 C 1.390625 -17.921875 1.453125 -18.148438 1.578125 -18.359375 C 1.703125 -18.578125 1.820312 -18.75 1.9375 -18.875 L 6.109375 -23.046875 C 6.472656 -23.410156 6.921875 -23.59375 7.453125 -23.59375 L 12.078125 -23.59375 C 12.628906 -23.59375 13.09375 -23.410156 13.46875 -23.046875 L 17.53125 -18.875 C 17.875 -18.539062 18.046875 -18.140625 18.046875 -17.671875 L 18.046875 -14.84375 C 18.046875 -14.664062 17.972656 -14.503906 17.828125 -14.359375 C 17.691406 -14.222656 17.53125 -14.15625 17.34375 -14.15625 Z M 14.25 -14.15625 "/></g></g></g><g fill="#000000" fill-opacity="1"><g transform="translate(86.491291, 212.120904)"><g><path d="M 1.390625 -5.921875 L 1.390625 -17.203125 C 1.390625 -17.671875 1.554688 -18.070312 1.890625 -18.40625 L 5.96875 -22.578125 C 6.34375 -22.941406 6.804688 -23.125 7.359375 -23.125 L 12.078125 -23.125 C 12.628906 -23.125 13.09375 -22.941406 13.46875 -22.578125 L 17.53125 -18.40625 C 17.875 -18.070312 18.046875 -17.671875 18.046875 -17.203125 L 18.046875 -5.921875 C 18.046875 -5.460938 17.875 -5.0625 17.53125 -4.71875 L 13.46875 -0.5625 C 13.09375 -0.1875 12.628906 0 12.078125 0 L 7.359375 0 C 6.804688 0 6.34375 -0.1875 5.96875 -0.5625 L 1.890625 -4.71875 C 1.554688 -5.0625 1.390625 -5.460938 1.390625 -5.921875 Z M 5.875 -7.125 C 5.875 -6.8125 5.984375 -6.550781 6.203125 -6.34375 L 7.6875 -4.953125 L 7.953125 -4.71875 C 8.046875 -4.625 8.203125 -4.578125 8.421875 -4.578125 L 11.015625 -4.578125 C 11.191406 -4.578125 11.34375 -4.625 11.46875 -4.71875 L 11.75 -4.953125 L 13.234375 -6.34375 C 13.453125 -6.550781 13.5625 -6.8125 13.5625 -7.125 L 13.5625 -16.015625 C 13.5625 -16.316406 13.453125 -16.578125 13.234375 -16.796875 L 11.75 -18.1875 L 11.46875 -18.40625 C 11.34375 -18.5 11.191406 -18.546875 11.015625 -18.546875 L 8.421875 -18.546875 C 8.203125 -18.546875 8.046875 -18.5 7.953125 -18.40625 L 7.6875 -18.1875 L 6.203125 -16.796875 C 5.984375 -16.578125 5.875 -16.316406 5.875 -16.015625 Z M 5.875 -7.125 "/></g></g></g><g fill="#000000" fill-opacity="1"><g transform="translate(105.917956, 212.120904)"><g><path d="M 1.390625 -0.6875 L 1.390625 -21.46875 C 1.390625 -21.925781 1.550781 -22.316406 1.875 -22.640625 C 2.195312 -22.960938 2.585938 -23.125 3.046875 -23.125 L 12.078125 -23.125 C 12.628906 -23.125 13.09375 -22.941406 13.46875 -22.578125 L 17.53125 -18.40625 C 17.875 -18.070312 18.046875 -17.671875 18.046875 -17.203125 L 18.046875 -0.6875 C 18.046875 -0.507812 17.972656 -0.347656 17.828125 -0.203125 C 17.691406 -0.0664062 17.53125 0 17.34375 0 L 14.25 0 C 14.0625 0 13.898438 -0.0664062 13.765625 -0.203125 C 13.628906 -0.347656 13.5625 -0.507812 13.5625 -0.6875 L 13.5625 -16.015625 C 13.5625 -16.316406 13.453125 -16.578125 13.234375 -16.796875 L 11.46875 -18.40625 C 11.34375 -18.5 11.191406 -18.546875 11.015625 -18.546875 L 5.875 -18.546875 L 5.875 -0.6875 C 5.875 -0.507812 5.800781 -0.347656 5.65625 -0.203125 C 5.519531 -0.0664062 5.363281 0 5.1875 0 L 2.078125 0 C 1.890625 0 1.726562 -0.0664062 1.59375 -0.203125 C 1.457031 -0.347656 1.390625 -0.507812 1.390625 -0.6875 Z M 1.390625 -0.6875 "/></g></g></g><g fill="#000000" fill-opacity="1"><g transform="translate(125.344621, 212.120904)"><g><path d="M 1.390625 -0.6875 L 1.390625 -21.46875 C 1.390625 -21.925781 1.550781 -22.316406 1.875 -22.640625 C 2.195312 -22.960938 2.585938 -23.125 3.046875 -23.125 L 12.078125 -23.125 C 12.628906 -23.125 13.09375 -22.941406 13.46875 -22.578125 L 17.53125 -18.40625 C 17.875 -18.070312 18.046875 -17.671875 18.046875 -17.203125 L 18.046875 -0.6875 C 18.046875 -0.507812 17.972656 -0.347656 17.828125 -0.203125 C 17.691406 -0.0664062 17.53125 0 17.34375 0 L 14.25 0 C 14.0625 0 13.898438 -0.0664062 13.765625 -0.203125 C 13.628906 -0.347656 13.5625 -0.507812 13.5625 -0.6875 L 13.5625 -16.015625 C 13.5625 -16.316406 13.453125 -16.578125 13.234375 -16.796875 L 11.46875 -18.40625 C 11.34375 -18.5 11.191406 -18.546875 11.015625 -18.546875 L 5.875 -18.546875 L 5.875 -0.6875 C 5.875 -0.507812 5.800781 -0.347656 5.65625 -0.203125 C 5.519531 -0.0664062 5.363281 0 5.1875 0 L 2.078125 0 C 1.890625 0 1.726562 -0.0664062 1.59375 -0.203125 C 1.457031 -0.347656 1.390625 -0.507812 1.390625 -0.6875 Z M 1.390625 -0.6875 "/></g></g></g><g fill="#000000" fill-opacity="1"><g transform="translate(144.771287, 212.120904)"><g><path d="M 6.5625 -16.796875 C 6.351562 -16.578125 6.25 -16.316406 6.25 -16.015625 L 6.25 -13.875 L 14.15625 -13.875 C 14.34375 -13.875 14.503906 -13.804688 14.640625 -13.671875 C 14.773438 -13.535156 14.84375 -13.375 14.84375 -13.1875 L 14.84375 -10 C 14.84375 -9.8125 14.773438 -9.644531 14.640625 -9.5 C 14.503906 -9.363281 14.34375 -9.296875 14.15625 -9.296875 L 6.25 -9.296875 L 6.25 -7.03125 C 6.25 -6.875 6.296875 -6.71875 6.390625 -6.5625 L 8 -4.8125 C 8.21875 -4.59375 8.484375 -4.484375 8.796875 -4.484375 L 16.421875 -4.484375 C 16.609375 -4.484375 16.769531 -4.414062 16.90625 -4.28125 C 17.050781 -4.144531 17.125 -3.984375 17.125 -3.796875 L 17.125 -0.6875 C 17.125 -0.507812 17.050781 -0.347656 16.90625 -0.203125 C 16.769531 -0.0664062 16.609375 0 16.421875 0 L 6.84375 0 C 6.382812 0 5.984375 -0.171875 5.640625 -0.515625 L 1.9375 -4.125 C 1.570312 -4.488281 1.390625 -4.945312 1.390625 -5.5 L 1.390625 -17.671875 C 1.390625 -17.921875 1.453125 -18.148438 1.578125 -18.359375 C 1.703125 -18.578125 1.820312 -18.75 1.9375 -18.875 L 5.640625 -22.578125 C 6.015625 -22.941406 6.460938 -23.125 6.984375 -23.125 L 16.421875 -23.125 C 16.609375 -23.125 16.769531 -23.054688 16.90625 -22.921875 C 17.050781 -22.785156 17.125 -22.625 17.125 -22.4375 L 17.125 -19.25 C 17.125 -19.0625 17.050781 -18.894531 16.90625 -18.75 C 16.769531 -18.613281 16.609375 -18.546875 16.421875 -18.546875 L 8.75 -18.546875 C 8.53125 -18.546875 8.296875 -18.425781 8.046875 -18.1875 Z M 6.5625 -16.796875 "/></g></g></g><g fill="#000000" fill-opacity="1"><g transform="translate(163.27288, 212.120904)"><g><path d="M 14.25 -14.15625 C 14.0625 -14.15625 13.898438 -14.222656 13.765625 -14.359375 C 13.628906 -14.503906 13.5625 -14.664062 13.5625 -14.84375 L 13.5625 -16.46875 C 13.5625 -16.8125 13.453125 -17.070312 13.234375 -17.25 L 11.75 -18.640625 C 11.5 -18.890625 11.253906 -19.015625 11.015625 -19.015625 L 8.75 -19.015625 C 8.53125 -19.015625 8.296875 -18.890625 8.046875 -18.640625 L 6.5625 -17.25 C 6.351562 -17.039062 6.25 -16.78125 6.25 -16.46875 L 6.25 -6.65625 C 6.25 -6.351562 6.351562 -6.09375 6.5625 -5.875 L 8.046875 -4.484375 C 8.296875 -4.242188 8.53125 -4.125 8.75 -4.125 L 11.015625 -4.125 C 11.253906 -4.125 11.5 -4.242188 11.75 -4.484375 L 13.234375 -5.875 C 13.453125 -6.0625 13.5625 -6.320312 13.5625 -6.65625 L 13.5625 -8.28125 C 13.5625 -8.46875 13.628906 -8.628906 13.765625 -8.765625 C 13.898438 -8.898438 14.0625 -8.96875 14.25 -8.96875 L 17.34375 -8.96875 C 17.53125 -8.96875 17.691406 -8.898438 17.828125 -8.765625 C 17.972656 -8.628906 18.046875 -8.46875 18.046875 -8.28125 L 18.046875 -5.453125 C 18.046875 -4.992188 17.875 -4.59375 17.53125 -4.25 L 13.46875 -0.09375 C 13.09375 0.28125 12.628906 0.46875 12.078125 0.46875 L 7.453125 0.46875 C 6.921875 0.46875 6.472656 0.28125 6.109375 -0.09375 L 1.9375 -4.25 C 1.820312 -4.40625 1.703125 -4.59375 1.578125 -4.8125 C 1.453125 -5.03125 1.390625 -5.242188 1.390625 -5.453125 L 1.390625 -17.671875 C 1.390625 -17.921875 1.453125 -18.148438 1.578125 -18.359375 C 1.703125 -18.578125 1.820312 -18.75 1.9375 -18.875 L 6.109375 -23.046875 C 6.472656 -23.410156 6.921875 -23.59375 7.453125 -23.59375 L 12.078125 -23.59375 C 12.628906 -23.59375 13.09375 -23.410156 13.46875 -23.046875 L 17.53125 -18.875 C 17.875 -18.539062 18.046875 -18.140625 18.046875 -17.671875 L 18.046875 -14.84375 C 18.046875 -14.664062 17.972656 -14.503906 17.828125 -14.359375 C 17.691406 -14.222656 17.53125 -14.15625 17.34375 -14.15625 Z M 14.25 -14.15625 "/></g></g></g><g fill="#000000" fill-opacity="1"><g transform="translate(182.699545, 212.120904)"><g><path d="M 20.59375 -23.125 C 20.769531 -23.125 20.925781 -23.054688 21.0625 -22.921875 C 21.207031 -22.785156 21.28125 -22.625 21.28125 -22.4375 L 21.28125 -18.96875 C 21.28125 -18.78125 21.207031 -18.617188 21.0625 -18.484375 C 20.925781 -18.347656 20.769531 -18.28125 20.59375 -18.28125 L 13.78125 -18.28125 L 13.78125 -0.6875 C 13.78125 -0.507812 13.710938 -0.347656 13.578125 -0.203125 C 13.441406 -0.0664062 13.28125 0 13.09375 0 L 9.625 0 C 9.4375 0 9.269531 -0.0664062 9.125 -0.203125 C 8.988281 -0.347656 8.921875 -0.507812 8.921875 -0.6875 L 8.921875 -18.28125 L 2.078125 -18.28125 C 1.890625 -18.28125 1.726562 -18.347656 1.59375 -18.484375 C 1.457031 -18.617188 1.390625 -18.78125 1.390625 -18.96875 L 1.390625 -22.4375 C 1.390625 -22.625 1.457031 -22.785156 1.59375 -22.921875 C 1.726562 -23.054688 1.890625 -23.125 2.078125 -23.125 Z M 20.59375 -23.125 "/></g></g></g></svg>