<svg xmlns="http://www.w3.org/2000/svg" xmlns:xlink="http://www.w3.org/1999/xlink" width="500" zoomAndPan="magnify" viewBox="0 0 375 374.999991" height="500" preserveAspectRatio="xMidYMid meet" version="1.0"><defs><g/><clipPath id="0965d77171"><path d="M 104.289062 112.511719 L 217.4375 112.511719 L 217.4375 257.289062 L 104.289062 257.289062 Z M 104.289062 112.511719 " clip-rule="nonzero"/></clipPath><clipPath id="b39c72ee45"><path d="M 171.488281 167.589844 L 283.988281 167.589844 L 283.988281 194.371094 L 171.488281 194.371094 Z M 171.488281 167.589844 " clip-rule="nonzero"/></clipPath><clipPath id="8573ff69e3"><path d="M 162.488281 112.511719 L 274.988281 112.511719 L 274.988281 138.425781 L 162.488281 138.425781 Z M 162.488281 112.511719 " clip-rule="nonzero"/></clipPath></defs><g clip-path="url(#0965d77171)"><path fill="#000000" d="M 104.289062 112.511719 L 217.4375 112.511719 L 217.4375 257.484375 L 104.289062 257.484375 Z M 104.289062 112.511719 " fill-opacity="1" fill-rule="nonzero"/></g><g clip-path="url(#b39c72ee45)"><path fill="#000000" d="M 171.488281 167.589844 L 283.949219 167.589844 L 283.949219 194.371094 L 171.488281 194.371094 Z M 171.488281 167.589844 " fill-opacity="1" fill-rule="nonzero"/></g><g fill="#ffffff" fill-opacity="1"><g transform="translate(101.443721, 245.376994)"><g><path d="M 11.78125 -123.65625 L 37.515625 -123.65625 L 37.515625 -23.234375 L 87.3125 -23.234375 L 87.3125 0 L 11.78125 0 Z M 11.78125 -123.65625 "/></g></g></g><g clip-path="url(#8573ff69e3)"><path fill="#000000" d="M 162.488281 112.511719 L 274.960938 112.511719 L 274.960938 138.425781 L 162.488281 138.425781 Z M 162.488281 112.511719 " fill-opacity="1" fill-rule="nonzero"/></g></svg>